<svg width="48" height="48" viewBox="0 0 48 48" fill="none" xmlns="http://www.w3.org/2000/svg">
<path d="M24 4C35.0457 4 44 12.9543 44 24C44 35.0457 35.0457 44 24 44C12.9543 44 4 35.0457 4 24C4 12.9543 12.9543 4 24 4ZM24 5.5C13.7827 5.5 5.5 13.7827 5.5 24C5.5 34.2173 13.7827 42.5 24 42.5C34.2173 42.5 42.5 34.2173 42.5 24C42.5 13.7827 34.2173 5.5 24 5.5ZM27.4111 16.4316C29.2324 15.7346 30.977 15.8644 32.2588 16.9453L32.3838 17.0566L32.9688 16.8926L33.458 16.75L33.8418 16.6279L34.291 16.4648C34.5019 16.382 34.7006 16.2939 34.8936 16.1973L35.0068 16.1514L35.1162 16.126L35.2305 16.1172C35.8226 16.1173 36.1182 16.7113 35.9551 17.1758L35.9482 17.1904L35.9248 17.2793C35.8153 17.6558 35.6382 18.1047 35.3936 18.6436L35.2656 18.9199L34.9766 19.5215L34.5127 20.4473L34.1494 21.1875C34.1475 21.1882 34.1446 21.1851 34.1426 21.1719L34.1377 21.1035L34.1328 21.6162C34.0984 22.8373 33.9202 24.0512 33.6016 25.2334C32.416 29.5469 29.3197 32.6614 25.249 33.8701C21.9107 34.8605 18.0264 34.239 14.4014 32.2197C13.6894 31.8229 13.9885 30.715 14.7988 30.7471C16.2887 30.8063 17.646 30.4413 19.1504 29.6123L19.3271 29.5107L19.0547 29.3486C16.6007 27.8409 15.309 25.7996 15.0176 23.416L14.9883 23.1396C14.8152 21.1957 15.2871 19.3503 16.0029 17.8379L16.0518 17.7363L16.1465 17.5527C16.4218 17.0528 17.1115 17.0143 17.4385 17.4805C19.0294 19.7517 21.386 21.1133 24.0479 21.3135L24.2324 21.3232L24.2354 20.8545C24.2976 18.9485 25.4463 17.2807 27.1982 16.5186L27.4111 16.4316ZM31.5879 18.457C30.7556 17.4973 29.4649 17.3209 27.9502 17.9004C26.605 18.4152 25.7487 19.6566 25.7676 21.0742V22.1201C25.7674 22.5453 25.4354 22.8924 25.0195 22.9033C21.9258 22.9841 19.0934 21.744 17.0469 19.4707L17.0107 19.4268L16.9219 19.6875C16.6251 20.6062 16.4512 21.6211 16.4941 22.6533L16.5166 22.998C16.7297 25.3879 18.1445 27.353 21.2139 28.7207C21.7705 28.9687 21.8382 29.7476 21.333 30.0918C20.113 30.9224 18.983 31.5197 17.8535 31.8857L17.5957 31.9639L18.0469 32.1172C20.2882 32.8395 22.516 32.9656 24.5059 32.4512L24.8203 32.3643C28.3884 31.3049 31.0838 28.5942 32.123 24.8135C32.4489 23.6047 32.6103 22.3554 32.6035 21.1035L32.6045 21.0391C32.6096 20.8951 32.6399 20.7803 32.7393 20.5596L32.8428 20.3408L33.6914 18.6416L33.873 18.2598L33.5762 18.3477L32.3789 18.6895C32.0935 18.7754 31.7853 18.6846 31.5879 18.457Z" fill="#212121"/>
</svg>
